<svg width="375" height="180" fill="none" xmlns="http://www.w3.org/2000/svg"><path fill="#F6F6F6" d="M0 0h375v180H0z"/><path stroke="#B79D37" stroke-width=".595" d="M80.356 95.702h214.285"/><path d="M319.084 51.15c.126-.49.3-.964.52-1.417.079-.173.305-.46.249-.518-.057-.058-.305.057-.407.115a5.273 5.273 0 00-1.895 2.11 5.395 5.395 0 00-.546 2.806v.196c0 1.543.498 2.372.599 3.903.023.21.023.423 0 .634 0 0 .079.08.113 0 .136-.265.271-.38.418-.645.152-.263.277-.54.373-.83.099-.287.171-.584.215-.886.088-.455.126-.918.113-1.381.101-.53 0-1.152 0-1.82 0-.763.084-1.523.248-2.268zM323.436 61.06c.057.253.091.391.158.633.094.442.238.87.43 1.278 0 .08.101.104.113 0a11.902 11.902 0 01.067-2.51 8.828 8.828 0 01.554-1.865c.057.054.1.12.124.196.325.83.538 1.702.633 2.59a9.943 9.943 0 01-.305 4.191c0 .139.079.185.203.058a6.689 6.689 0 001.458-3.12 7.38 7.38 0 000-3.293 24.538 24.538 0 01-.87-3.454 6.96 6.96 0 01.192-2.603v-.115c0-.034-.339.139-.384.173a6.975 6.975 0 00-1.796 2.31 7.11 7.11 0 00-.701 2.86 7.738 7.738 0 00.124 2.671z" fill="#B79D37"/><path d="M324.528 67.74c-.508-1.15-1.062-2.302-1.581-3.454a16.787 16.787 0 01-1.831-7.288v-.196c-.373.173-.565.519-.892.875-2.655 2.902-2.554 5.757-3.073 9.672-.079.645-.079 1.151-.17 1.658a3.3 3.3 0 00-1.158-.811 3.256 3.256 0 00-1.384-.248c0 .083.028.165.079.23a6.89 6.89 0 01.418 5.389c-.248.978-.632 1.9-.971 2.843-.238.645-.52 1.244-.712 1.889a15.917 15.917 0 00-.746 4.605 10.382 10.382 0 001.684 6.068c.305.472.666.91 1.016 1.37a6.349 6.349 0 001.616 1.151c.26.175.56.278.87.3a12.506 12.506 0 01-1.311-3.696c-.423-2.617.186-5.3 1.695-7.461a15.702 15.702 0 002.26-3.765 13.7 13.7 0 001.92 4.732c.26.541.667.967.882 1.52a12.684 12.684 0 011.649 4.053 6.597 6.597 0 01-.723 4.41c0 .069 0 0 .091.08a5.94 5.94 0 003.525-2.383 11.376 11.376 0 001.988-7.714c0-1.083-.068-2.154 0-3.224a12.86 12.86 0 01.87-4.065s-.057-.092-.09-.103a5.131 5.131 0 00-2.023 1.024 7.349 7.349 0 00-1.649 1.716 22.217 22.217 0 00-2.249-9.177zm3.153 11.353c.44 1.79.563 3.647.361 5.48a10.84 10.84 0 01-.655 2.718 7.075 7.075 0 01-1.254 2.118h-.068a13.369 13.369 0 00-1.198-7.702 30.269 30.269 0 01-1.92-4.606c-.26-1.013-.531-2.015-.735-3.028a7.617 7.617 0 00-1.74-3.454h-.135a8.284 8.284 0 01-.757 3.328c-.177.476-.388.938-.633 1.381-.249.46-.429.69-.712 1.151l-.214.323a16.935 16.935 0 00-1.209 2.118 14.64 14.64 0 00-.995 2.303 12.01 12.01 0 00-.406 6.99c.111.296.187.605.226.92a8.926 8.926 0 01-.825-1.566 10.683 10.683 0 01-.215-6.908c.61-1.83 1.424-3.454 2.124-5.158a29.429 29.429 0 001.424-3.834 60.985 60.985 0 001.921-8.44 22.134 22.134 0 001.683 5.343c.475 1.001.983 1.922 1.435 2.982.452 1.059.825 1.922 1.22 2.843a22.984 22.984 0 011.672 6.529h.124c.193-.242.294-.541.486-.806.286-.385.62-.73.995-1.025z" fill="#B79D37"/><path d="M321.744 91.713c.282 0 .407-.242.621-.45.183-.184.336-.398.452-.632.443-.809.591-1.751.418-2.66a5.077 5.077 0 00-.18-1.002 8.88 8.88 0 00-1.3-2.648c-.587-1.002-1.13-1.393-1.389-2.487 0-.219-.08-.564-.08-.564s-.09 0-.135.08a7.636 7.636 0 00-1.963 3.11 7.765 7.765 0 00-.297 3.684c.157.767.391 1.516.701 2.233a3.15 3.15 0 001.13 1.37c0-.08.158-.126.067-.23a6.806 6.806 0 01-.531-2.245 5.432 5.432 0 01.848-3.063.717.717 0 01.226-.23c.223.806.546 1.58.96 2.303.194.418.35.853.463 1.3.104.524.123 1.06.057 1.59-.057.174-.08.358-.068.54zM315.451 93.234a5.09 5.09 0 011.706 1.122 5.202 5.202 0 011.141 1.71c1.455-.109 2.917-.109 4.372 0a7.038 7.038 0 013.265-2.9 3.612 3.612 0 00-1.875-.634 17.247 17.247 0 00-6.519 0c-.791.161-1.661.207-2.09.702zM318.497 102.213c-.035.849-.013 1.699.068 2.545 1.345.28 2.718.4 4.09.357v-2.902c1.695.185 3.627-.241 3.186-2.049-.248-1.048-1.808-1.151-3.118-.99a11.995 11.995 0 01-.068-2.05h-4.158v1.934c-1.491.07-3.061 0-3.186 1.417-.124 1.416 1.401 1.9 3.186 1.738zM55.916 51.15a7.554 7.554 0 00-.52-1.417c-.079-.173-.305-.46-.248-.518.056-.058.305.057.407.115a5.273 5.273 0 011.895 2.11c.43.867.619 1.838.545 2.806v.196c0 1.543-.497 2.372-.599 3.903-.022.21-.022.423 0 .634 0 0-.079.08-.113 0-.135-.265-.27-.38-.418-.645a4.542 4.542 0 01-.373-.83 4.83 4.83 0 01-.214-.886 6.301 6.301 0 01-.113-1.381c-.102-.53 0-1.152 0-1.82 0-.763-.084-1.523-.249-2.268zM51.564 61.06c-.056.253-.09.391-.158.633-.093.442-.237.87-.43 1.278 0 .08-.1.104-.112 0 .066-.836.043-1.678-.068-2.51a8.804 8.804 0 00-.554-1.865.473.473 0 00-.124.196c-.324.83-.537 1.702-.633 2.59a9.943 9.943 0 00.306 4.191c0 .139-.08.185-.204.058a6.687 6.687 0 01-1.457-3.12 7.366 7.366 0 010-3.293c.373-1.128.663-2.283.87-3.454.1-.872.035-1.756-.193-2.603v-.115c0-.034.34.139.385.173a6.969 6.969 0 011.795 2.31c.43.892.67 1.867.702 2.86.114.89.072 1.795-.125 2.671z" fill="#B79D37"/><path d="M50.472 67.74c.509-1.15 1.062-2.302 1.582-3.454a16.783 16.783 0 001.83-7.288v-.196c.373.173.565.519.893.875 2.655 2.902 2.553 5.757 3.073 9.672.079.645.079 1.151.17 1.658a3.31 3.31 0 011.157-.811c.44-.183.911-.267 1.384-.248a.373.373 0 01-.079.23 6.914 6.914 0 00-.418 5.389c.249.978.633 1.9.972 2.843.237.645.52 1.244.712 1.889a15.93 15.93 0 01.745 4.605 10.38 10.38 0 01-1.683 6.068c-.305.472-.667.91-1.017 1.37a6.328 6.328 0 01-1.615 1.151c-.26.175-.56.278-.87.3.627-1.153 1.07-2.4 1.31-3.696.423-2.617-.186-5.3-1.695-7.461a15.68 15.68 0 01-2.26-3.765 13.706 13.706 0 01-1.92 4.732c-.26.541-.666.967-.881 1.52a12.685 12.685 0 00-1.65 4.053 6.6 6.6 0 00.723 4.41c0 .069 0 0-.09.08a5.938 5.938 0 01-3.525-2.383 11.375 11.375 0 01-1.989-7.714c0-1.083.068-2.154 0-3.224a12.869 12.869 0 00-.87-4.065s.057-.092.09-.103c.741.185 1.432.535 2.023 1.024a7.35 7.35 0 011.65 1.716c.084-3.19.851-6.321 2.248-9.177zM47.32 79.093a15.738 15.738 0 00-.362 5.48c.1.932.321 1.846.656 2.718a7.064 7.064 0 001.254 2.118h.068a13.371 13.371 0 011.197-7.702 30.242 30.242 0 001.92-4.606c.26-1.013.532-2.015.735-3.028a7.628 7.628 0 011.74-3.454h.136a8.28 8.28 0 00.757 3.328c.176.476.388.938.633 1.381.248.46.429.69.711 1.151l.215.323c.453.675.857 1.383 1.209 2.118.396.737.729 1.508.994 2.303.827 2.234.969 4.671.407 6.99a4.045 4.045 0 00-.226.92 8.959 8.959 0 00.825-1.566c.835-2.212.91-4.647.214-6.908-.61-1.83-1.423-3.454-2.124-5.158a29.441 29.441 0 01-1.423-3.834 60.955 60.955 0 01-1.921-8.44 22.17 22.17 0 01-1.684 5.343c-.474 1.001-.982 1.922-1.434 2.982-.452 1.059-.825 1.922-1.22 2.843a22.994 22.994 0 00-1.673 6.529H48.8c-.192-.242-.294-.541-.486-.806a5.385 5.385 0 00-.994-1.025z" fill="#B79D37"/><path d="M53.257 91.713c-.283 0-.407-.242-.622-.45a2.472 2.472 0 01-.452-.632 3.991 3.991 0 01-.418-2.66c.026-.34.087-.675.181-1.002a8.862 8.862 0 011.3-2.648c.587-1.002 1.13-1.393 1.389-2.487 0-.219.079-.564.079-.564s.09 0 .136.08a7.64 7.64 0 011.963 3.11 7.762 7.762 0 01.296 3.684 11.396 11.396 0 01-.7 2.233 3.152 3.152 0 01-1.13 1.37c0-.08-.158-.126-.068-.23a6.796 6.796 0 00.531-2.245 5.43 5.43 0 00-.847-3.063.73.73 0 00-.226-.23 10 10 0 01-.96 2.303c-.195.418-.35.853-.464 1.3a4.997 4.997 0 00-.056 1.59c.057.174.08.358.068.54zM59.55 93.234a5.086 5.086 0 00-1.706 1.122 5.197 5.197 0 00-1.141 1.71 29.166 29.166 0 00-4.373 0 7.035 7.035 0 00-3.265-2.9 3.614 3.614 0 011.876-.634 17.247 17.247 0 016.519 0c.79.161 1.66.207 2.09.702zM56.503 102.213c.036.849.013 1.699-.068 2.545-1.345.28-2.717.4-4.09.357v-2.902c-1.694.185-3.626-.241-3.186-2.049.249-1.048 1.808-1.151 3.119-.99.08-.68.103-1.366.068-2.05h4.157v1.934c1.492.07 3.062 0 3.186 1.417.125 1.416-1.4 1.9-3.186 1.738z" fill="#B79D37"/><path d="M138.805 145.7h2.014c-.461-.291-.589-.604-.589-1.339v-4.557l3.964 5.065c.461.637.921.993 1.554 1.199v-6.534c0-.746.117-1.026.6-1.34h-2.025c.46.324.6.584.6 1.34v4.46l-4.19-5.378c-.214-.27-.246-.324-.268-.422h-1.65c.45.314.59.584.59 1.34v4.827c0 .745-.118 1.026-.6 1.339zM147.12 145.7h4.714l.525-1.49c-.611.464-1.221.648-2.207.648-.514 0-.868-.032-1.393-.119v-2.711h1.007c.504 0 .707.065.89.314v-1.21c-.14.076-.215.076-.386.076h-1.511v-2.128c.332-.054.622-.076 1.168-.076.739 0 1.007.098 1.382.454v-1.328a1.025 1.025 0 01-.428.064h-3.761c.396.227.503.476.503 1.458v4.58c0 .972-.085 1.242-.503 1.468zM152.443 138.454c.214.237.321.55.728 1.674l1.533 4.168c.31.951.407 1.048 1.457 1.739l3.021-7.841h-1.714c.268.119.407.335.407.648 0 .292-.075.594-.343 1.286l-1.596 4.222-1.854-5.097c-.171-.475-.257-.789-.257-.929 0-.054 0-.097.011-.13h-1.65c.107.098.193.184.257.26zM159.603 145.7h4.714l.525-1.49c-.611.464-1.221.648-2.207.648-.514 0-.868-.032-1.393-.119v-2.711h1.007c.504 0 .707.065.89.314v-1.21c-.14.076-.215.076-.386.076h-1.511v-2.128c.332-.054.622-.076 1.168-.076.739 0 1.007.098 1.382.454v-1.328a1.025 1.025 0 01-.428.064h-3.761c.396.227.503.476.503 1.458v4.58c0 .972-.085 1.242-.503 1.468zM165.279 145.7h2.143c-.418-.226-.503-.496-.503-1.458v-5.259c.342-.076.546-.087.792-.087.815 0 1.372.519 1.372 1.264 0 .875-.632 1.415-1.886 1.631.611 1.047 1.307 2.052 1.982 2.84.772.918 1.093 1.134 1.747 1.134h.16c.15 0 .365-.021.879-.065-.9-.453-1.779-1.382-3.45-3.672 1.071-.259 1.832-1.08 1.832-1.954 0-.551-.289-1.113-.75-1.458-.418-.303-.932-.443-1.671-.443h-.215c-.075 0-.171 0-.267.011-.118.01-.225.01-.311.01h-1.854c.418.227.504.497.504 1.458v4.59c0 .962-.086 1.232-.504 1.458zM174.425 145.7h2.142c-.417-.226-.503-.496-.503-1.458v-2.214h1.007c.504 0 .718.065.889.314v-1.21c-.139.076-.214.076-.385.076h-1.511v-2.128c.343-.054.621-.076 1.178-.076.729 0 .997.098 1.372.443v-1.317a1.057 1.057 0 01-.429.064h-3.76c.417.227.503.497.503 1.458v4.59c0 .962-.086 1.232-.503 1.458zM179.425 143.519c.633 1.404 2.068 2.365 3.804 2.365 2.336 0 4.179-1.76 4.179-3.985 0-1.037-.429-2.085-1.147-2.776-.718-.702-1.811-1.123-2.882-1.123-2.432 0-4.275 1.706-4.275 3.985 0 .551.107 1.059.321 1.534zm1.168-2.905c.14-.378.322-.702.568-.951.504-.518 1.286-.842 2.057-.842.868 0 1.586.335 2.132.993.504.605.772 1.404.772 2.268 0 1.772-1.168 2.992-2.85 2.992-.804 0-1.468-.281-1.982-.853-.59-.648-.911-1.545-.911-2.419 0-.411.075-.81.214-1.188zM188.195 145.7h2.142c-.417-.226-.503-.496-.503-1.458v-5.259c.343-.076.546-.087.793-.087.814 0 1.371.519 1.371 1.264 0 .875-.632 1.415-1.886 1.631.611 1.047 1.308 2.052 1.983 2.84.771.918 1.092 1.134 1.746 1.134h.161c.15 0 .364-.021.878-.065-.9-.453-1.778-1.382-3.45-3.672 1.072-.259 1.832-1.08 1.832-1.954 0-.551-.289-1.113-.75-1.458-.417-.303-.932-.443-1.671-.443h-.214c-.075 0-.172 0-.268.011-.118.01-.225.01-.311.01h-1.853c.417.227.503.497.503 1.458v4.59c0 .962-.086 1.232-.503 1.458zM195.06 143.746c.279.529.675.982 1.2 1.339.804.551 1.747.799 2.99.799.75 0 1.264-.065 2.314-.27.107-.032.182-.043.225-.054l.171-.011c-.053-.162-.064-.227-.064-.583v-2.419c0-.303.022-.529.064-.67h-1.703c.418.227.503.497.503 1.458v1.512c-.353.13-1.007.227-1.553.227-1.832 0-3.289-1.447-3.289-3.229 0-1.761 1.317-3.024 3.16-3.024.9 0 1.5.205 2.015.691v-1.307c-.75-.151-1.158-.194-1.79-.194-1.189 0-2.121.259-2.935.81-1.115.745-1.736 1.868-1.736 3.175 0 .637.139 1.22.428 1.75zM203.235 143.519c.632 1.404 2.068 2.365 3.804 2.365 2.335 0 4.178-1.76 4.178-3.985 0-1.037-.428-2.085-1.146-2.776-.718-.702-1.811-1.123-2.882-1.123-2.433 0-4.275 1.706-4.275 3.985 0 .551.107 1.059.321 1.534zm1.168-2.905c.139-.378.321-.702.568-.951.503-.518 1.285-.842 2.057-.842.868 0 1.586.335 2.132.993.504.605.771 1.404.771 2.268 0 1.772-1.167 2.992-2.85 2.992-.803 0-1.467-.281-1.982-.853-.589-.648-.91-1.545-.91-2.419 0-.411.075-.81.214-1.188zM211.704 139.264c.311-.173.6-.216 1.136-.216.268 0 .686 0 .911.032v5.162c0 .94-.108 1.253-.504 1.458h2.239c-.482-.313-.6-.594-.6-1.339v-5.281h.182c.418-.022.515-.032.643-.032h.15c.654 0 .89.097 1.061.432l.364-1.361c-.118.043-.15.043-.225.054-.053 0-.193.011-.439.021h-4.254c-.214 0-.45-.032-.578-.075l-.418 1.361c.118-.087.225-.162.332-.216z" fill="#0C0C0C"/><path d="M217.255 139.264c.311-.173.6-.216 1.136-.216.268 0 .685 0 .91.032v5.162c0 .94-.107 1.253-.503 1.458h2.239c-.482-.313-.6-.594-.6-1.339v-5.281h.182c.418-.022.515-.032.643-.032h.15c.654 0 .889.097 1.061.432l.364-1.361c-.118.043-.15.043-.225.054-.053 0-.193.011-.439.021h-4.254c-.214 0-.45-.032-.578-.075l-.418 1.361c.118-.087.225-.162.332-.216zM223.106 145.7h4.714l.525-1.49c-.61.464-1.221.648-2.207.648-.514 0-.868-.032-1.393-.119v-2.711h1.007c.504 0 .708.065.89.314v-1.21c-.14.076-.215.076-.386.076h-1.511v-2.128c.332-.054.622-.076 1.168-.076.739 0 1.007.098 1.382.454v-1.328c-.16.054-.214.064-.428.064h-3.761c.396.227.504.476.504 1.458v4.58c0 .972-.086 1.242-.504 1.468zM228.697 145.7h2.014c-.461-.291-.589-.604-.589-1.339v-4.557l3.964 5.065c.461.637.921.993 1.554 1.199v-6.534c0-.746.117-1.026.6-1.34h-2.025c.46.324.6.584.6 1.34v4.46l-4.19-5.378c-.214-.27-.246-.324-.268-.422h-1.65c.45.314.59.584.59 1.34v4.827c0 .745-.118 1.026-.6 1.339z" fill="#0C0C0C"/><path d="M123.941 116.629v8.064c0 1.632-.191 1.997-1.181 2.63h4.209c-.305-.211-.438-.384-.648-.691-.304-.461-.342-.749-.342-1.939V113c-.896 1.517-2.648 3.014-4.381 3.629h2.343zM132.696 127.323c1.104.25 1.752.327 2.609.327 3.524 0 5.962-1.882 5.962-4.608 0-2.554-1.981-4.282-4.895-4.282-.686 0-1.124.058-1.943.269l.21-3.341a16.564 16.564 0 012.19-.134c1.733 0 2.533.249 3.257.864v-2.439h-7.257l-.438 7.027a7.838 7.838 0 013.029-.614c2.228 0 3.657 1.056 3.657 2.726 0 1.786-1.543 3.015-3.81 3.015-1.276 0-2.305-.269-3.505-.883l.934 2.073zM142.727 119.317h1.372v4.473c0 1.805.114 2.247.723 2.919.591.595 1.219.883 2.058.883.304 0 .438-.019.723-.115l1.048-1.44c-.362.134-.533.173-.838.173-.648 0-1.162-.231-1.543-.692-.286-.364-.362-.768-.362-1.9v-4.301h1.486c.686 0 .933.077 1.257.365v-1.824c-.248.096-.514.115-1.181.115h-1.562v-3.015h-.781v.25c0 1.133-.247 1.958-.743 2.496-.4.48-.952.768-1.657.883v.73zM149.159 127.323h3.352c-.723-.576-.78-.672-.78-1.997v-3.705c0-1.095.057-1.248.361-1.671.439-.518 1.105-.806 1.924-.806s1.505.307 1.943.864c.305.403.381.749.381 1.728v3.59c0 1.325-.057 1.479-.781 1.997h3.352c-.704-.557-.761-.691-.761-1.997v-4.204c0-1.056-.134-1.575-.496-2.093-.59-.826-1.676-1.325-2.914-1.325-1.276 0-2.419.499-3.009 1.286v-5.395c-.286.288-.591.384-1.181.384h-1.391c.705.557.762.691.762 1.997v9.35c0 1.306-.057 1.44-.762 1.997zM164.028 127.323h3.695c-.533-.288-.724-.518-.724-.902 0-.288.076-.634.229-1.037l1.143-3.091h5.085l1.181 3.091c.305.787.343.941.343 1.133 0 .326-.114.441-.724.806h4.172c-.895-.499-1.333-1.152-1.943-2.726l-4.229-10.618h-3.2c.458.231.61.423.61.787 0 .212-.076.519-.229.922l-3.542 8.909c-.667 1.766-.934 2.112-1.867 2.726zm4.819-6.336l2.057-5.299 2.038 5.299h-4.095zM179.163 118.338c.324.326.343.672.343 1.632v9.542c0 1.286-.114 1.613-.762 1.958h3.333c-.647-.345-.761-.691-.761-1.958v-7.469c0-.921.133-1.421.495-1.881.552-.692 1.428-1.095 2.343-1.095 1.828 0 3.047 1.498 3.047 3.648 0 2.247-1.143 3.514-3.143 3.514-.819 0-1.39-.154-2.247-.557l1.085 1.651c.591.211.934.269 1.524.269 2.8 0 4.838-2.17 4.838-5.088 0-1.325-.457-2.554-1.276-3.398-.838-.845-2.133-1.402-3.352-1.402-1.314 0-2.572.557-3.314 1.459v-1.574c-.286.288-.591.384-1.181.384h-1.391c.172.134.324.269.419.365zM190.857 118.338c.324.326.343.672.343 1.632v5.356c0 1.306-.057 1.44-.762 1.997h3.334c-.705-.557-.762-.691-.762-1.997v-3.34c0-.826.133-1.44.419-1.844.362-.518 1.028-.825 1.733-.825.4 0 .724.115.953.326v-1.862a3.66 3.66 0 00-.705-.077c-1.048 0-1.848.518-2.4 1.555v-1.67c-.286.288-.591.384-1.181.384h-1.391c.172.134.324.269.419.365zM196.698 117.973c.705.557.762.691.762 1.997v5.356c0 1.306-.057 1.44-.762 1.997h3.333c-.704-.557-.761-.691-.761-1.997v-7.737c-.286.288-.591.384-1.181.384h-1.391zm.381-2.496c0 .71.552 1.267 1.238 1.267.705 0 1.257-.557 1.257-1.267 0-.672-.552-1.248-1.219-1.248-.743 0-1.276.557-1.276 1.248zM201.114 127.323h3.334c-.705-.557-.762-.691-.762-1.997v-11.731c-.286.288-.591.384-1.181.384h-1.391c.705.557.762.691.762 1.997v9.35c0 1.306-.057 1.44-.762 1.997zM214.728 116.629v8.064c0 1.632-.191 1.997-1.181 2.63h4.209c-.304-.211-.438-.384-.647-.691-.305-.461-.343-.749-.343-1.939V113c-.895 1.517-2.648 3.014-4.381 3.629h2.343zM222.416 120.2c.648 1.555 2.076 2.592 3.886 2.592.667 0 .971-.058 1.638-.288l1.372-1.69c-.762.442-1.391.596-2.153.596-1.771 0-3.067-1.364-3.067-3.284 0-1.747 1.277-3.033 2.991-3.033 1.962 0 3.409 1.824 3.409 4.281 0 1.92-.78 3.61-2.342 5.088-1.124 1.056-2.191 1.632-3.791 2.016l-.99 1.268c2.266-.365 3.581-.807 5.085-1.767 2.61-1.613 4.096-4.07 4.096-6.835 0-3.168-2.229-5.51-5.277-5.51-2.914 0-5.181 2.15-5.181 4.876 0 .615.115 1.172.324 1.69zM234.143 125.365c.762 1.401 2.59 2.285 4.952 2.285 3.238 0 5.41-1.594 5.41-3.956 0-.979-.419-1.862-1.162-2.457-.419-.346-.705-.519-1.333-.845l-.724-.365c1.695-.902 2.457-1.824 2.457-3.053 0-1.92-1.981-3.321-4.724-3.321-2.743 0-4.8 1.517-4.8 3.513 0 1.364.857 2.4 2.552 3.149-2.057.864-3.028 1.978-3.028 3.514 0 .557.133 1.075.4 1.536zm3.867-4.435c3.314.921 4.4 1.67 4.4 3.072 0 1.44-1.315 2.361-3.296 2.361-1.047 0-1.676-.211-2.304-.749-.667-.576-1.01-1.228-1.01-1.977 0-1.133.743-2.035 2.21-2.707zm-1.772-4.148c0-1.132 1.01-1.881 2.533-1.881 1.772 0 3.105.979 3.105 2.285 0 .825-.628 1.651-1.828 2.323-2.724-.768-3.81-1.575-3.81-2.727zM246.022 120.2c.648 1.555 2.076 2.592 3.886 2.592.666 0 .971-.058 1.638-.288l1.371-1.69c-.762.442-1.39.596-2.152.596-1.772 0-3.067-1.364-3.067-3.284 0-1.747 1.276-3.033 2.991-3.033 1.961 0 3.409 1.824 3.409 4.281 0 1.92-.781 3.61-2.343 5.088-1.124 1.056-2.19 1.632-3.79 2.016l-.991 1.268c2.267-.365 3.581-.807 5.086-1.767 2.61-1.613 4.095-4.07 4.095-6.835 0-3.168-2.228-5.51-5.276-5.51-2.914 0-5.181 2.15-5.181 4.876 0 .615.114 1.172.324 1.69zM187.558 55.498c0 4.1-1.073 7.932-3.219 11.496s-5.193 6.553-9.14 8.968c-4.138 2.567-9.254 4.33-15.348 5.288l2.989-3.794c4.446-1.073 8.259-3.085 11.44-6.036 4.713-4.407 7.07-9.484 7.07-15.233 0-3.678-.977-6.725-2.932-9.14-1.954-2.452-4.407-3.678-7.357-3.678-2.568 0-4.714.862-6.439 2.586-1.724 1.725-2.586 3.89-2.586 6.496 0 2.874.862 5.231 2.586 7.07 1.725 1.84 3.948 2.76 6.668 2.76 2.185 0 4.35-.594 6.496-1.782l-4.139 5.058c-1.648.575-3.295.862-4.943.862-3.603 0-6.63-1.226-9.083-3.678-2.414-2.453-3.621-5.5-3.621-9.14 0-4.1 1.495-7.55 4.484-10.347 3.027-2.836 6.744-4.254 11.151-4.254 4.599 0 8.393 1.571 11.382 4.714 3.027 3.104 4.541 7.032 4.541 11.784zM219.96 40.035l-8.507 19.659c-4.561 10.538-6.841 16.517-6.841 17.935 0 .804.556 1.59 1.667 2.356h-10.117l15.291-34.892a45.915 45.915 0 00-8.91-.862c-4.599 0-8.431 1.035-11.497 3.104l2.759-7.3h26.155z" fill="#B79D37"/></svg>